<svg xmlns="http://www.w3.org/2000/svg" width="54" height="54">
    <path fill="#306E51" fill-rule="evenodd" d="M27 54C12.128 54 0 41.871 0 27S12.128 0 27 0c14.871 0 27 12.129 27 27S41.871 54 27 54zm0-50.999C13.782 3.001 3 13.782 3 27c0 13.219 10.782 24.001 24 24.001 13.219 0 24-10.782 24-24.001C51 13.782 40.219 3.001 27 3.001zM27 50C14.318 50 4 39.683 4 27 4 14.318 14.318 4 27 4s23 10.318 23 23c0 12.683-10.318 23-23 23zm0-45.61C14.532 4.39 4.39 14.533 4.39 27c0 12.468 10.142 22.61 22.61 22.61S49.611 39.468 49.611 27C49.611 14.533 39.468 4.39 27 4.39zm19.818 16.664a.677.677 0 0 1-.398-.42 1.318 1.318 0 0 1-.044-.578c.026-.229.018-.402-.023-.517a.253.253 0 0 0-.176-.162.442.442 0 0 0-.282.011l-.046-.567a.836.836 0 0 1 .605.007.662.662 0 0 1 .403.415c.044.124.055.309.036.555-.019.247-.009.428.032.543.027.075.085.129.175.162.09.033.187.031.289-.006l.033.564a.822.822 0 0 1-.604-.007zm-5.15 3.071l-.357-1.013.909-.695-.554-1.568-1.141.041-.36-1.013 5.341-.069.351.993-4.189 3.324zm2.701-3.365l-1.869.061.387 1.092 1.488-1.134-.006-.019zm-4.929-1.875l1.679-1.268-1.242-1.674-1.679 1.268-.614-.824 4.044-3.052.612.825-1.739 1.311 1.243 1.675 1.739-1.313.612.825-4.043 3.051-.612-.824zM34.97 14.4l1-1.862-1.819-1-1.002 1.86-.897-.493 2.41-4.478.896.493-1.036 1.925 1.82 1.001 1.035-1.925.897.493-2.409 4.478-.895-.492zm-4.269-1.876l-1.413-3.759h-.022l-.603 3.382-1.001-.185.894-5.02 1.003.186 1.413 3.754.023.001.602-3.378 1.003.185-.896 5.019-1.003-.185zm-5.056-6.001l.651-.961 1.134-.048.009.021-.926.952-.868.036zm-2.047 3.766l-1.997.542.554 2.048-.985.267-1.33-4.928.985-.267.571 2.119 1.997-.542-.571-2.119.982-.267 1.33 4.927-.982.267-.554-2.047zm-3.701 1.601l.017.014c.296.456.383.905.26 1.349-.122.444-.436.826-.942 1.148-.515.328-1.034.426-1.56.294-.525-.132-.954-.462-1.285-.989l-.537-.857c-.331-.526-.447-1.055-.349-1.586.098-.532.398-.958.899-1.277.522-.332 1.012-.464 1.468-.395.457.07.828.34 1.112.812l.006.021-.837.533c-.174-.276-.37-.44-.588-.491-.218-.051-.465.011-.742.187a.827.827 0 0 0-.406.697c-.014.301.082.616.29.946l.541.863c.209.333.455.555.74.668.283.112.559.082.832-.091.257-.163.406-.354.448-.569.041-.217-.025-.465-.201-.746l.834-.531zm-4.448 5.504c-.058.347-.231.725-.519 1.13-.355.505-.803.805-1.343.899-.539.096-1.06-.037-1.559-.397l-.862-.62c-.498-.359-.794-.807-.89-1.345-.094-.537.031-1.05.376-1.54.359-.509.756-.814 1.184-.913.431-.099.843-.001 1.234.296l.012.018-.554.788c-.22-.158-.436-.217-.648-.176-.212.04-.404.182-.577.426a.932.932 0 0 0-.143.83c.085.297.281.557.588.778l.868.624c.311.225.622.327.931.309a.957.957 0 0 0 .749-.433 1.81 1.81 0 0 0 .274-.514.904.904 0 0 0 .039-.376l-.799-.576-.566.803-.572-.412 1.158-1.641 1.591 1.146c.078.251.085.549.028.896zm-2.279 4.239l-3.861.955-.002.021 3.257 1.018-.298.983-4.836-1.512.299-.981 3.858-.957.003-.021-3.255-1.017.298-.983 4.836 1.511-.299.983zm-.956 4.22l-1.089.348.006 1.663 1.092.346.002 1.073-5.062-1.73L7.16 26.5l5.051-1.722.003 1.075zm-1.884.598l-1.78.567v.021l1.784.571-.004-1.159zm-4.588 1.937l-.004-1.144.921-.691.003.884-.9.958-.02-.007zm6.836 2.061l-2.007.62.61 1.997 2.009-.619.301.984-4.833 1.49-.3-.984 2.077-.641-.611-1.997-2.078.64-.301-.983 4.832-1.49.301.983zm1.094 8.581l.568-1.002.568 1.002 1.118.236-.769.855.125 1.147-1.042-.474-1.043.474.125-1.147-.768-.855 1.118-.236zM26.668 6.985l.232 5.099-1.019.043-.231-5.099 1.018-.043zM27 15.084c6.497 0 11.796 5.353 11.796 11.916 0 6.563-5.299 11.916-11.796 11.916a11.59 11.59 0 0 1-5.21-1.245l.958-.625s1.857-1.05 3.175-1.193c1.314-.142 3.842.256 5.303-.541 1.461-.796 3.396-1.886 3.257-2.746-.142-.86-.677-.752-.677-.752s.021-.07.196-.284c.175-.214.691-.606.505-1.31-.186-.705-.748-.77-.748-.77.317-.625.701-.567.357-1.727-.246-.833-.956-.702-.956-.702s.823-.583.564-1.635c-.262-1.05-1.119-1.148-2.137-1.07-1.018.079-4.043.782-4.131.476-.086-.307.148-.457.361-1.142.213-.683 1.139-2.316.887-3.543-.253-1.227-.748-2.211-1.334-2.236-.586-.026-1.023.502-1.058.723-.034.22-.061.433.097 1.131.158.699-.15 1.169-.784 2.376-.636 1.208-1.11.931-1.849 1.926-.737.995-.78 1.482-.809 2.877-.028 1.394-.626 1.802-1.891 2.959-.94.86-3.414 1.937-4.623 2.433A11.904 11.904 0 0 1 15.205 27c0-6.563 5.298-11.916 11.795-11.916zm-5.544 22.424c.109.059.223.108.334.163l-.018.012c-.108-.054-.21-.118-.316-.175zm-4.854-4.899c-.054-.103-.115-.201-.166-.306l.017-.007c.051.104.095.211.149.313zm3.789 4.25zm1.134 6.634l.537-.949.539.949 1.059.223-.727.81.118 1.087-.989-.448-.986.448.117-1.087-.728-.81 1.06-.223zm9.792.333l.538-.95.539.95 1.058.222-.727.811.117 1.087-.987-.449-.987.449.117-1.087-.727-.811 1.059-.222zm7.084-4.424l.567-1.002.568 1.002 1.119.235-.768.855.124 1.148-1.043-.474-1.041.474.125-1.148-.77-.855 1.119-.235zm3.741-9.79c.472-.28 1.003-.34 1.598-.179l1.019.278c.591.161 1.025.477 1.3.948.273.47.335.996.182 1.576-.159.605-.423 1.031-.792 1.276-.368.244-.787.297-1.256.158l-.018-.013.246-.935c.26.071.482.05.666-.063.185-.113.317-.314.392-.604a.93.93 0 0 0-.153-.829c-.183-.249-.456-.423-.821-.522l-1.027-.28c-.369-.1-.695-.087-.979.04-.283.127-.465.351-.55.67a1.853 1.853 0 0 0-.078.579.88.88 0 0 0 .094.366l.946.257.252-.951.678.184-.515 1.948-1.886-.513c-.158-.209-.271-.485-.336-.831-.066-.346-.035-.76.093-1.243.158-.598.472-1.038.945-1.317zm4.721-2.416l.046 1.028-5.053.213-.046-1.027 3.315-2.21-.005-.021-3.403.144-.046-1.028 5.053-.213.045 1.027-3.312 2.21.005.021 3.401-.144z"/>
</svg>
