<svg xmlns="http://www.w3.org/2000/svg" width="54" height="54">
    <path fill="#306E51" fill-rule="evenodd" d="M27 54C12.088 54 0 41.912 0 27 0 12.342 11.683.42 26.245.019 26.497.012 26.747 0 27 0c.24 0 .478.012.717.018C42.296.399 54 12.329 54 27c0 14.912-12.088 27-27 27zm0-51.5C13.491 2.5 2.501 13.491 2.501 27S13.491 51.5 27 51.5c13.509 0 24.5-10.991 24.5-24.5S40.509 2.5 27 2.5zm17.7 25.46l-.239 2.201 2.269.28-.119 1.083-5.276-.651.119-1.084 2.192.271.239-2.201-2.191-.27.118-1.084 5.275.652-.117 1.083-2.27-.28zm.621-2.598c-.496.099-.933.003-1.307-.289-.375-.293-.626-.745-.754-1.359l-.201-.973-1.884.376-.222-1.072 5.195-1.033.422 2.043c.128.614.077 1.127-.156 1.54-.23.413-.596.669-1.093.767zm.448-2.147l-.202-.972-1.705.339.201.972c.062.298.187.508.379.631.188.123.406.16.652.111a.875.875 0 0 0 .57-.353c.133-.184.167-.427.105-.728zm-6.396-4.296l1.568-3.9-.017-.016-2.865 2.123-.647-.883 4.252-3.15.648.882-1.565 3.898.017.016 2.862-2.121.647.883-4.253 3.151-.647-.883zm.601-9.139a1.11 1.11 0 0 1-.295-.377c-.095-.176-.179-.292-.253-.346-.05-.037-.108-.043-.176-.017a.386.386 0 0 0-.171.141l-.272-.339a.712.712 0 0 1 .385-.275.462.462 0 0 1 .429.072c.082.061.177.182.283.363.106.181.196.3.272.356.048.036.108.039.18.011a.41.41 0 0 0 .181-.146l.256.366a.674.674 0 0 1-.387.27.484.484 0 0 1-.432-.079zm-.196.176l.39 1.324-.019.014-.754-.56-.183-.756-.769.051-.757-.561.008-.022 1.369-.019.715.529zm-.075 2.382l-1.921-1.425L37 11.995l1.621 1.202-.478.665-1.623-1.202-.888 1.23 1.929 1.429-.479.661-2.805-2.079 3.107-4.302 2.8 2.074-.481.665zm-7.198.774l2.152-4.869.989.455-2.153 4.869-.988-.455zm-1.712-.687l.495-3.617-.022-.006-1.815 3.42-.728-.11-.826-3.827-.022.001-.495 3.623-1.071-.162.723-5.297 1.405.213.826 4.108.022.004 1.905-3.696 1.397.211-.721 5.297-1.073-.162zm-8.176-.981l-1.643.583.05 1.212-1.015.36.008.011-.887.67c-.126-.003-.254-.069-.387-.198a3.33 3.33 0 0 1-.348-.397l-.228-.305c-.16-.214-.344-.337-.55-.368-.205-.031-.416.035-.63.196l-.683.518 1.284 1.719-.862.65-3.213-4.302 1.485-1.123c.49-.369.957-.546 1.399-.531.444.014.815.222 1.114.622.165.22.249.456.252.704.002.249-.071.508-.222.775.31-.116.586-.129.827-.038.242.092.46.267.652.524l.237.317c.09.12.199.233.33.34.127.103.25.156.374.162l-.105-5.591 1.041-.37 3.518 4.452-1.062.376-.736-.968zm-5.938.005c-.148-.196-.324-.308-.53-.334-.206-.027-.423.047-.654.221l-.625.472.937 1.252.609-.46c.243-.183.385-.37.426-.562.041-.191-.014-.388-.163-.589zm4.206-2.294l-.023.007.077 1.981 1.145-.406-1.199-1.582zm-.39-2.191l.08.225-.759.27-.226-.456c.168-.068.284-.132.344-.193.061-.061.073-.124.037-.189l-.008-.021c-.017-.084-.076-.13-.174-.135a1.021 1.021 0 0 0-.382.074l-.141-.47c.428-.153.779-.209 1.049-.17.272.04.445.165.521.376a.454.454 0 0 1-.026.401.769.769 0 0 1-.315.288zm-4.889 10.547l-.642.87-3.61-2.734-.902 1.223-.661-.5 2.46-3.333.66.5-.916 1.24 3.611 2.734zm-2.683 5.212l-5.029-1.776.345-1.03 5.03 1.776-.346 1.03zm-3.443.306l.951.098c.65.067 1.168.333 1.553.795.385.463.548 1.03.488 1.702-.06.67-.321 1.191-.781 1.564-.46.372-1.016.525-1.665.458l-.951-.098c-.646-.067-1.164-.33-1.55-.789-.388-.459-.552-1.023-.493-1.689.06-.672.322-1.197.784-1.575.463-.377 1.016-.533 1.664-.466zm-1.62 2.126c-.033.367.074.666.32.899.245.231.574.368.984.411l.959.098c.419.044.77-.023 1.052-.202.282-.178.439-.453.473-.822.033-.372-.074-.676-.319-.911s-.577-.375-.996-.418l-.958-.099c-.411-.043-.759.028-1.042.211-.282.184-.439.461-.473.833zm-1.714-.17l.503.65-.085.948-.024.009-.82-1.185.083-.93 1.016-.991.02.014-.085.948-.608.537zm-.249-1.267a.998.998 0 0 0-.026-.335c-.023-.069-.065-.102-.127-.098l-.022-.002c-.07-.017-.127.01-.167.084a.901.901 0 0 0-.077.322l-.402-.068c.036-.386.115-.677.238-.87.123-.194.278-.281.465-.262.132.014.232.07.297.168a.644.644 0 0 1 .107.347l.2.02-.061.689-.425.005zm3.329 5.199l.855-.189c.634-.141 1.201-.044 1.698.288.498.333.821.824.97 1.474l.425 1.856-2.316.511.113.497-.643.142-.114-.497-2.211.49-.426-1.856c-.148-.651-.068-1.231.239-1.741.307-.511.777-.835 1.41-.975zm-.85 2.539l.182.789 1.413-.312-.203-.888.643-.142.203.888 1.52-.337-.181-.788a1.082 1.082 0 0 0-.576-.763c-.304-.158-.653-.193-1.052-.105l-.863.19c-.393.088-.694.267-.899.537-.204.27-.266.58-.187.931zM27 46.71c7.023 0 13.149-3.895 16.348-9.633l.454.214C40.521 43.199 34.223 47.21 27 47.21c-7.782 0-14.482-4.659-17.499-11.327l.507-.098C12.969 42.221 19.463 46.71 27 46.71zM27 39c-5.157 0-9.541-3.259-11.239-7.825a11.89 11.89 0 0 1-.524-1.796A12.102 12.102 0 0 1 15 27c0-6.628 5.372-12 12-12 4.192 0 7.878 2.154 10.024 5.412a11.934 11.934 0 0 1 1.971 6.492c0 .032.005.064.005.096a12 12 0 0 1-.515 3.474 12.01 12.01 0 0 1-.424 1.186C36.241 35.973 31.974 39 27 39zm-9.228-5.383l2.251-.821.08.093c.048.052.095.111.15.166l.182.168.41.372c.075.065.147.137.231.201l.261.189.567.401c.207.123.431.24.657.364.114.062.228.128.348.185l.377.152.387.154c.129.055.262.104.403.135l.847.224c.302.048.614.087.926.127l.233.03.213.001.425.001h.471l.461-.044c.309-.018.612-.096.916-.145.6-.143 1.192-.321 1.736-.582.551-.238 1.051-.557 1.515-.88.449-.345.864-.699 1.207-1.084l.257-.278c.076-.098.152-.194.225-.29.155-.184.283-.379.404-.564.127-.181.229-.369.326-.545.049-.088.096-.174.14-.257l.116-.253c.158-.321.255-.618.343-.859.085-.239.123-.436.162-.566l.056-.201-.079.193c-.055.124-.114.317-.227.543-.113.227-.24.502-.429.797l-.14.231c-.054.075-.108.153-.167.232-.111.16-.229.327-.372.486-.136.163-.278.334-.444.492l-.244.248-.272.233c-.361.322-.787.605-1.232.872-.46.246-.943.482-1.463.637-.512.176-1.053.27-1.59.336-.271.01-.539.049-.808.032l-.402-.008c-.13-.016-.258-.031-.385-.048-.143-.016-.284-.034-.424-.051l-.21-.025-.18-.049-.698-.185-.677-.266a1.705 1.705 0 0 1-.317-.15l-.3-.163-.291-.156c-.091-.058-.177-.125-.263-.184-.17-.124-.338-.236-.492-.352l-.41-.373-.192-.171c-.058-.058-.107-.123-.16-.181l-.115-.132 2.075-.756-5.2-4.359-1.175 6.683zm13.231-5.034v-.792h-.575v-3.206h-1.035l-2.118 3.385.049.613h2.08v1.109h1.024v-1.109h.575zm-5.253 1.109v-5.18l-2.077.182v.782h1.055v4.216h1.022zm8.54-8.616L34.226 21l-.146-.165a62.458 62.458 0 0 1-.178-.163l-.401-.364-.222-.199-.256-.186-.553-.391c-.195-.133-.42-.239-.638-.364l-.34-.183c-.114-.062-.242-.103-.365-.155-.25-.096-.502-.208-.768-.295l-.714-.188-.113-.03c-.136-.042-.289-.06-.441-.08l-.455-.061c-.15-.017-.31-.045-.453-.051l-.416-.001-.421-.001-.104-.001-.092-.001-.057.006-.226.021c-.149.016-.301.027-.449.046l-.448.079c-.298.042-.587.143-.876.211-.282.104-.57.181-.837.308l-.401.176c-.13.064-.256.135-.383.202l-.029.017c-.245.124-.468.281-.693.422-.226.159-.443.323-.648.49-.066.06-.125.118-.191.175-.131.114-.267.225-.379.349a5.973 5.973 0 0 0-.493.538c-.075.089-.15.178-.22.266-.068.091-.131.181-.196.27l-.183.259-.157.26a4.668 4.668 0 0 0-.273.487c-.166.307-.279.592-.372.823-.098.23-.141.42-.186.545l-.063.195.084-.185c.061-.119.127-.304.25-.518.117-.218.26-.479.457-.76.089-.145.199-.289.318-.438l.18-.231.207-.228.213-.236c.08-.073.159-.149.24-.227a6.16 6.16 0 0 1 .524-.45c.177-.157.387-.281.588-.425.094-.06.197-.115.296-.173.118-.069.232-.141.354-.207.23-.108.456-.234.703-.321.123-.047.243-.098.367-.142.125-.037.251-.076.377-.115.251-.084.518-.122.774-.184.267-.03.525-.089.793-.094l.396-.023c.131-.001.263.005.395.007l.195.004.024.001h.002l.012.002.027.003.104.012.417.051.414.051c.133.021.24.061.36.09l.344.091c.114.028.226.053.339.105l.662.26c.209.099.405.217.598.319.096.054.195.096.281.158l.256.183c.164.124.335.224.477.35.14.127.273.25.402.366l.186.167c.052.062.103.123.154.18l.046.054.049.055-2.081.76 5.2 4.357.395-2.248.78-4.434-2.259.823zm-5.012 5.084l.104-.228.022.003v1.856h-1.199l1.073-1.631zm11.561 10.953c.204-.309.399-.625.583-.948l.436.206.472.223c-3.017 5.36-8.754 8.994-15.33 8.994-6.988 0-13.019-4.107-15.854-10.025l.474-.092.539-.105c.203.406.426.8.66 1.186 2.708 4.478 7.456 7.587 12.957 7.991.405.028.812.045 1.224.045a17.431 17.431 0 0 0 5.234-.807 17.507 17.507 0 0 0 5.072-2.555 16.995 16.995 0 0 0 3.605-4.073l-.072-.04zm-6.71 5.85a16.35 16.35 0 0 1-1.895.818c-.307.096-.629.157-.944.237a16.615 16.615 0 0 0 2.839-1.055zM40.97 31.62l5.001 1.854-.362 1.024-5.002-1.854.363-1.024zm6.157 3.091l-.402 1.14-.024-.001-.549-1.302.307-.874.668 1.037z"/>
</svg>
